Titolo: Vinicius, MarÍlia Medalha, Toquinho - Como dizia o Poeta...Musica Nova

Artista: Vinicius, Marilia Medalha, Toquinho

Titolo: Como dizia o poeta.....Nova Musica

Genere: Musica Popular Brasileira

SottoGenere: Bossa/Jazz

Data di uscita: 21 marzo 1971

Casa discografica: RGE Record

Durata: 34:54


1. Tarde Em Itapoa (4:02) canta Vinicius, Marilia e Toquinho
2. Como Dizia O Poeta...(3:14) canta Vinicius, Marilia e Toquinho
3. Tomora (2:12) canta Vinicius e Marilia
4. Valsa Para O Ausente (1:50) canta Marilia
5. Samba De Gesse (2:37) canta Vinicius
6. A Tonga Da Mironga Do Kabulete (4:04) canta Vinicius e Toquinho
7. A Bencao, Bahia! (3:05) canta Vinicius, Marilia e Toquinho
8. Mais Um Adeus (3:36) canta Toquinho e Marilia
9. A Vez Do Dombe (1:43) canta Vinicius, Marilia e Toquinho
10. O Grande Apelo (1:31) canta Marilia
11. Samba Da Rosa (4:03) canta Vinicius e Toquinho
12. Melancia E Coco Verde (2:52) canta Vinicius e Marilia

Exact Audio Copy V1.0 beta 1 from 15. November 2010

EAC extraction logfile from 10. July 2011, 19:38

Unknown Artist / Unknown Title

Used drive : HL-DT-STDVDRAM GSA-T40N Adapter: 0 ID: 0

Read mode : Secure
Utilize accurate stream : Yes
Defeat audio cache : No
Make use of C2 pointers : Yes

Read offset correction : 667
Overread into Lead-In and Lead-Out : No
Fill up missing offset samples with silence : Yes
Delete leading and trailing silent blocks : No
Null samples used in CRC calculations : No
Used interface : Native Win32 interface for Win NT & 2000

Used output format : User Defined Encoder
Selected bitrate : 768 kBit/s
Quality : High
Add ID3 tag : No
Command line compressor : c:\Users\leomarco\Contacts\Desktop\Exact Audio Copy\FLAC\FLAC.EXE
Additional command line options : -6 -V -T "ARTIST=%a" -T "TITLE=%t" -T "ALBUM=%g" -T "DATE=%y" -T "TRACKNUMBER=%n" -T "GENRE=%m" -T "COMMENT=%e" %j--picture="%i"%j %s -o %d


TOC of the extracted CD

Track | Start | Length | Start sector | End sector
---------------------------------------------------------
1 | 0:00.00 | 4:02.47 | 0 | 18196
2 | 4:02.47 | 3:14.10 | 18197 | 32756
3 | 7:16.57 | 2:12.13 | 32757 | 42669
4 | 9:28.70 | 1:50.15 | 42670 | 50934
5 | 11:19.10 | 2:37.27 | 50935 | 62736
6 | 13:56.37 | 4:04.43 | 62737 | 81079
7 | 18:01.05 | 3:05.07 | 81080 | 94961
8 | 21:06.12 | 3:36.05 | 94962 | 111166
9 | 24:42.17 | 1:43.25 | 111167 | 118916
10 | 26:25.42 | 1:31.05 | 118917 | 125746
11 | 27:56.47 | 4:03.23 | 125747 | 143994
12 | 31:59.70 | 2:52.45 | 143995 | 156939


Range status and errors

Selected range

Filename C:\Users\leomarco\Contacts\Desktop\Unknown Artist - Unknown Title.wav

Peak level 100.0 %
Extraction speed 1.0 X
Range quality 100.0 %
Test CRC A0365BF5
Copy CRC A0365BF5
Copy OK

No errors occurred


AccurateRip summary

Track 1 accurately ripped (confidence 1) [D5E02E86]
Track 2 accurately ripped (confidence 1) [CA73BAEB]
Track 3 accurately ripped (confidence 1) [B4E17C12]
Track 4 accurately ripped (confidence 1) [7D8C2E55]
Track 5 accurately ripped (confidence 1) [D6242C75]
Track 6 accurately ripped (confidence 1) [CCB7BBF8]
Track 7 accurately ripped (confidence 1) [992FA182]
Track 8 accurately ripped (confidence 1) [2CE4C9D9]
Track 9 accurately ripped (confidence 1) [C2BB4CB1]
Track 10 accurately ripped (confidence 1) [222DD50E]
Track 11 accurately ripped (confidence 1) [42E0F6B2]
Track 12 accurately ripped (confidence 1) [B05634F1]

All tracks accurately ripped

End of status report

==== Log checksum 13DE3787D8BAC6E85449717502E2215733AD8444165F459C795432AE052065AB ====


Per i primi 10: 24 su 24:50/60 Kb/s